<?xml version="1.0" encoding="utf-8"?>
<!-- Generator: Adobe Illustrator 15.0.0, SVG Export Plug-In . SVG Version: 6.00 Build 0)  -->
<!DOCTYPE svg PUBLIC "-//W3C//DTD SVG 1.1//EN" "http://www.w3.org/Graphics/SVG/1.1/DTD/svg11.dtd">
<svg version="1.1" id="Layer_1" xmlns="http://www.w3.org/2000/svg" xmlns:xlink="http://www.w3.org/1999/xlink" x="0px" y="0px"
	 width="400px" height="400px" viewBox="0 0 400 400" enable-background="new 0 0 400 400" xml:space="preserve">
<path fill="#4A2F61" d="M375,281.25V18.75C375,8.359,366.641,0,356.25,0H100C58.594,0,25,33.594,25,75v250c0,41.406,33.594,75,75,75
	h256.25c10.391,0,18.75-8.359,18.75-18.75v-12.5c0-5.859-2.734-11.172-6.953-14.609c-3.281-12.031-3.281-46.328,0-58.359
	C372.266,292.422,375,287.109,375,281.25L375,281.25z M125,104.688c0-2.578,2.109-4.688,4.688-4.688h165.625
	c2.578,0,4.688,2.109,4.688,4.688v15.625c0,2.578-2.109,4.688-4.688,4.688H129.688c-2.578,0-4.688-2.109-4.688-4.688V104.688z
	 M125,154.688c0-2.578,2.109-4.688,4.688-4.688h165.625c2.578,0,4.688,2.109,4.688,4.688v15.625c0,2.578-2.109,4.688-4.688,4.688
	H129.688c-2.578,0-4.688-2.109-4.688-4.688V154.688z M322.969,350H100c-13.828,0-25-11.172-25-25c0-13.75,11.25-25,25-25h222.969
	C321.484,313.359,321.484,336.641,322.969,350z"/>
</svg>
